<svg version="1.1" id="Layer_1" xmlns="http://www.w3.org/2000/svg" xmlns:xlink="http://www.w3.org/1999/xlink" x="0px" y="0px"
	 width="100%" viewBox="0 0 1754 762" enable-background="new 0 0 1754 762" xml:space="preserve">
<path fill="#000000" opacity="1.000000" stroke="none" 
	d="
M1330.000000,763.000000 
	C886.666687,763.000000 443.833344,763.000000 1.000000,763.000000 
	C1.000000,509.000000 1.000000,255.000000 1.000000,1.000000 
	C585.666687,1.000000 1170.333374,1.000000 1755.000000,1.000000 
	C1755.000000,255.000000 1755.000000,509.000000 1755.000000,763.000000 
	C1613.500000,763.000000 1472.000000,763.000000 1330.000000,763.000000 
M1151.913086,255.500000 
	C1151.913086,193.515915 1151.914429,131.531845 1151.907959,69.547768 
	C1151.907715,67.382721 1151.953247,65.207115 1151.768555,63.054356 
	C1150.653076,50.055019 1139.770996,40.608013 1127.311401,40.267853 
	C1111.996338,39.849739 1101.280762,50.514069 1101.238770,66.045692 
	C1101.161499,94.538185 1101.216553,123.031036 1101.216431,151.523743 
	C1101.216431,153.271484 1101.216431,155.019211 1101.216431,156.766953 
	C1100.820801,156.952637 1100.425049,157.138321 1100.029419,157.324020 
	C1098.915039,155.951889 1097.815674,154.567276 1096.684082,153.209488 
	C1079.182617,132.208817 1056.570190,121.601387 1029.427856,121.086128 
	C1002.111145,120.567558 978.529114,129.843231 958.644165,148.918137 
	C945.986328,161.060303 937.415833,175.789658 932.355408,192.014862 
	C926.677979,210.218506 924.382690,229.161011 926.893250,248.527283 
	C928.963684,264.498474 932.468628,279.820129 939.914612,294.222168 
	C946.930176,307.791748 956.041382,319.669342 968.399780,328.528748 
	C986.368591,341.410126 1006.307678,348.505005 1028.893555,348.044617 
	C1052.065308,347.572296 1071.714233,339.560608 1088.058716,323.306122 
	C1092.347290,319.041168 1096.293945,314.432434 1101.219849,309.089905 
	C1101.219849,313.748138 1101.145264,317.329803 1101.232544,320.907501 
	C1101.654663,338.226166 1115.554321,346.826935 1128.148926,345.756409 
	C1142.492554,344.537231 1151.864746,333.876831 1151.899048,319.483826 
	C1151.949097,298.489319 1151.912720,277.494629 1151.913086,255.500000 
M791.771606,401.934784 
	C791.285156,401.260681 790.795776,400.588715 790.312805,399.912140 
	C783.530212,390.409668 770.704651,388.034882 761.538147,391.009857 
	C750.343567,394.643097 744.999084,402.886353 744.998535,415.780243 
	C744.997314,444.442261 744.998169,473.104248 744.998169,501.766266 
	C744.998169,503.471039 744.998169,505.175812 744.998169,506.472198 
	C739.215454,501.065308 733.836243,495.645935 728.044922,490.710083 
	C718.816711,482.845093 708.230591,477.568420 696.608826,473.840851 
	C685.491577,470.275085 674.264465,470.995392 663.026245,471.069061 
	C646.951660,471.174408 632.286011,476.744385 618.888428,485.017639 
	C604.632202,493.821045 593.089539,505.585419 584.981812,520.552063 
	C578.909790,531.760925 574.567688,543.528809 572.096863,555.991333 
	C569.738464,567.886719 569.158997,579.859314 569.911133,592.009521 
	C571.379211,615.726990 577.383484,637.648254 591.665527,657.174255 
	C603.802307,673.767395 619.296509,685.443909 638.575623,692.018860 
	C651.618713,696.467041 664.942566,698.500916 678.989014,697.168518 
	C703.320679,694.860413 722.597107,683.981812 738.043091,665.521912 
	C740.104614,663.058105 742.202332,660.624512 745.002014,657.331482 
	C745.002014,663.066284 744.913086,667.668396 745.023499,672.265686 
	C745.177368,678.670715 747.670959,684.435242 752.308472,688.500244 
	C760.345825,695.545715 770.095032,697.175903 779.870483,692.978394 
	C789.616760,688.793457 795.010925,680.956848 795.009155,669.924438 
	C794.995422,584.771667 795.041992,499.618744 794.872253,414.466278 
	C794.864380,410.530457 792.972046,406.598358 791.771606,401.934784 
M727.993225,328.508575 
	C729.540527,329.385742 731.153076,330.165741 732.625122,331.154907 
	C750.564270,343.208649 770.948181,347.543915 791.953308,348.749512 
	C800.962952,349.266602 810.261353,347.676300 819.205078,345.910919 
	C857.500732,338.352173 885.029480,316.749023 901.948547,281.507141 
	C908.713928,267.415161 911.335327,252.490860 911.998779,237.076462 
	C912.894409,216.267197 907.766113,196.827240 897.778564,178.759995 
	C886.165894,157.753036 869.155884,142.292252 847.420532,132.069275 
	C834.441895,125.964890 820.778687,123.197029 806.478943,121.724861 
	C789.161926,119.942070 772.512634,121.976471 756.355957,127.450302 
	C736.776917,134.083603 719.824951,144.893875 706.402344,161.160004 
	C698.345337,170.923904 691.505981,181.349030 687.234314,193.063278 
	C681.609680,208.487717 678.557617,224.467850 679.849854,241.198959 
	C680.829407,253.881973 682.935303,266.100830 687.691956,277.945435 
	C695.995239,298.621735 708.999573,315.446228 727.993225,328.508575 
M1376.408203,314.907684 
	C1395.339722,295.484772 1406.768921,272.353485 1408.844238,245.293625 
	C1410.686157,221.278259 1406.674194,198.334732 1394.146973,177.052460 
	C1380.682129,154.177307 1361.611694,138.317810 1337.142334,128.896591 
	C1319.340332,122.042435 1300.935303,119.913269 1281.708374,121.748512 
	C1263.174561,123.517624 1246.362061,129.107971 1230.456299,138.413422 
	C1216.503906,146.576157 1205.229980,157.708588 1196.286743,170.815628 
	C1186.971680,184.467712 1180.966309,199.787338 1178.432983,216.343506 
	C1175.968628,232.447952 1176.107666,248.614105 1180.336060,264.180725 
	C1185.281860,282.388672 1193.880127,298.927673 1207.311279,312.829865 
	C1217.923950,323.814636 1229.847534,333.002991 1243.763916,338.664734 
	C1262.200439,346.165497 1281.402344,350.041626 1301.819336,348.220825 
	C1330.481079,345.664764 1355.076538,335.082092 1376.408203,314.907684 
M550.336365,549.246765 
	C543.846069,529.629395 533.190491,512.772888 517.583679,499.062561 
	C498.388123,482.199585 475.949432,472.805878 450.651398,471.211792 
	C437.174530,470.362579 423.605011,470.365692 410.106476,473.823151 
	C390.720673,478.788544 373.475464,487.429871 358.838135,500.856842 
	C347.087189,511.636047 338.376007,524.682861 331.893097,539.420715 
	C327.068573,550.388489 324.598511,561.870300 323.290192,573.448364 
	C322.239197,582.749634 323.122711,592.424072 324.305603,601.786743 
	C326.055511,615.637634 330.308319,628.772217 337.545807,640.959229 
	C344.707581,653.018799 352.767303,664.287964 364.209045,672.494385 
	C372.181213,678.212280 380.589996,683.541443 389.399292,687.817383 
	C400.926117,693.412537 413.436035,696.108337 426.264679,697.295410 
	C453.299683,699.796997 478.640442,694.674500 501.787476,680.344421 
	C521.782593,667.965637 536.719971,651.050049 545.999451,629.240662 
	C551.451477,616.426880 554.354492,603.140442 555.039673,589.263123 
	C555.698547,575.916687 554.254395,562.850891 550.336365,549.246765 
M1040.751099,531.785034 
	C1039.881836,530.386230 1038.943481,529.025330 1038.153931,527.582886 
	C1026.449341,506.198456 1008.937988,491.012726 987.053406,480.962463 
	C970.536865,473.377441 952.971619,470.662506 934.704285,470.868378 
	C900.701599,471.251587 872.181580,483.241913 849.163818,508.445923 
	C838.664978,519.941895 830.757996,532.919922 826.210449,547.688538 
	C821.377136,563.385193 818.823242,579.333374 820.877380,596.059509 
	C823.942505,621.016907 832.838806,642.856079 850.023621,661.515381 
	C864.669556,677.417786 882.545288,688.099609 902.909851,693.643616 
	C922.402100,698.950073 942.514771,699.879028 962.664001,695.056824 
	C1004.488159,685.047241 1032.719238,659.948181 1047.242554,619.639709 
	C1052.393921,605.342590 1053.141724,590.428589 1052.218872,575.179199 
	C1051.302856,560.040649 1047.322388,546.040222 1040.751099,531.785034 
M1450.958618,135.325821 
	C1438.454468,141.853943 1436.121948,151.638657 1438.712769,161.686478 
	C1441.761841,173.510818 1456.015381,179.366989 1468.273804,174.788696 
	C1490.119629,166.629700 1512.629150,163.774139 1535.504028,168.988358 
	C1560.993896,174.798660 1570.126343,195.061035 1568.405762,218.063339 
	C1553.458496,213.689133 1538.346191,210.773834 1522.725220,209.834946 
	C1500.611694,208.505768 1479.082397,210.123459 1458.653320,219.201553 
	C1443.659180,225.864441 1432.069092,236.216675 1425.753296,251.824478 
	C1420.937500,263.725464 1419.556030,275.939697 1420.934204,288.705566 
	C1422.933350,307.223846 1431.215332,322.041656 1446.291138,332.775482 
	C1467.858398,348.131073 1492.207031,350.474976 1517.475098,346.357758 
	C1537.484253,343.097443 1554.078369,333.140015 1568.158691,317.648926 
	C1568.158691,320.322510 1567.692627,322.421844 1568.250488,324.199951 
	C1569.652832,328.669861 1570.592896,333.731293 1573.380737,337.231323 
	C1580.132812,345.708191 1591.924438,347.882996 1602.803589,343.810120 
	C1611.783813,340.448151 1617.778076,331.498627 1617.807251,320.698792 
	C1617.896362,287.713745 1618.091919,254.725388 1617.706787,221.744614 
	C1617.570190,210.046402 1616.919678,198.164978 1614.696655,186.718155 
	C1609.407715,159.485352 1594.001587,139.966690 1567.570923,130.039825 
	C1549.313965,123.182877 1530.412476,121.909126 1511.030029,122.831139 
	C1490.507446,123.807373 1470.848999,128.015442 1450.958618,135.325821 
M653.010864,188.965683 
	C654.082153,188.601074 655.133850,188.157990 656.227905,187.884247 
	C664.990112,185.691833 670.220093,179.498459 672.516235,171.429749 
	C674.938904,162.916245 672.505920,154.717087 665.885315,148.758713 
	C651.290039,135.623306 634.268005,126.610870 614.874695,123.398476 
	C601.060303,121.110191 587.030457,119.957970 572.876526,121.959465 
	C549.347229,125.286697 528.628906,134.637161 511.179810,150.560562 
	C498.780945,161.875320 489.395752,175.614288 483.625793,191.534317 
	C477.220306,209.207840 473.590485,227.168579 475.813416,246.260208 
	C477.402771,259.910370 480.416779,272.998901 486.255493,285.320892 
	C494.790741,303.333740 507.060699,318.217468 523.933044,329.286346 
	C539.149719,339.269012 555.569641,345.372375 573.601318,347.836487 
	C586.333008,349.576324 598.913757,348.797241 611.369141,346.711884 
	C629.355286,343.700562 645.561035,336.135712 659.524902,324.384125 
	C665.271729,319.547699 672.152771,315.260101 673.633606,306.821198 
	C675.093933,298.499023 673.833496,290.778870 667.209045,285.098785 
	C660.072876,278.979950 650.303040,277.800659 642.816040,282.338318 
	C635.948303,286.500671 629.776062,291.842987 622.803284,295.793213 
	C604.734192,306.029663 585.834229,306.712738 566.449829,299.580322 
	C555.234741,295.453735 546.785278,287.988220 539.581665,278.694855 
	C531.399475,268.138916 527.247620,255.945404 526.245056,242.994720 
	C525.578186,234.379562 526.386047,225.415024 528.097900,216.922165 
	C529.581421,209.562347 532.138733,201.916519 536.183594,195.667099 
	C549.778198,174.663452 568.547363,163.286163 594.712463,165.819443 
	C607.713257,167.078186 618.878723,171.730453 628.945435,179.488403 
	C635.872803,184.826981 642.722717,189.917130 653.010864,188.965683 
M117.050247,549.790710 
	C116.710304,551.909668 116.526665,554.067871 116.005646,556.141296 
	C111.909386,572.442810 111.123459,588.807739 114.171432,605.417358 
	C117.936394,625.934204 126.116798,644.470093 139.844269,660.054565 
	C153.076431,675.076721 169.226791,686.068665 188.676697,692.216370 
	C207.795120,698.259277 227.008560,699.183228 246.667557,696.318848 
	C267.168793,693.331787 284.609802,684.085815 300.276215,670.950928 
	C307.144257,665.192749 311.577454,658.860535 311.300110,648.964233 
	C311.033417,639.449463 300.559021,629.556519 292.104187,628.940125 
	C282.350525,628.229004 276.087830,634.284241 269.185394,639.326721 
	C250.077667,653.285339 229.285995,658.164490 206.523987,650.145508 
	C186.789200,643.193115 173.453033,629.387634 167.171738,609.501587 
	C159.576111,585.454468 161.372925,562.151794 175.980789,540.940796 
	C195.730545,512.263672 232.870956,507.219269 260.891510,525.075562 
	C267.317566,529.170593 272.475403,535.177368 280.403839,537.133484 
	C290.871857,539.716187 300.187775,536.640381 306.808563,527.501953 
	C311.790161,520.625977 311.875000,508.776672 305.617859,501.433929 
	C294.298370,488.150543 279.125793,480.350037 262.750092,475.424866 
	C242.952332,469.470520 222.662552,469.342865 202.320374,472.974060 
	C176.761703,477.536407 156.005127,490.523071 139.096207,509.698029 
	C129.037399,521.104858 122.559647,534.782043 117.050247,549.790710 
M297.745148,152.319550 
	C284.791565,158.830673 271.710388,165.102081 258.915649,171.911697 
	C241.679428,181.085190 241.890625,206.346771 250.265091,216.789673 
	C255.486221,223.300430 262.379791,226.648376 269.543793,230.135498 
	C305.441467,247.608780 341.242432,265.280731 377.071259,282.895355 
	C389.220245,288.868225 401.310822,294.961487 413.502441,300.845612 
	C424.636230,306.219238 435.952850,304.421082 441.919189,296.567108 
	C451.531860,283.913177 447.041138,267.831421 432.037231,260.855347 
	C412.163605,251.615067 392.320984,242.307907 372.482544,232.992218 
	C356.510468,225.492065 340.557861,217.950424 324.609467,210.400040 
	C316.008148,206.327957 307.433838,202.198792 298.363129,197.863968 
	C299.612701,197.124359 300.229187,196.685745 300.903473,196.370895 
	C344.830170,175.858978 388.787567,155.412308 432.644714,134.752884 
	C436.277893,133.041428 439.861084,130.406723 442.383514,127.316231 
	C448.568054,119.738953 448.385132,107.745422 442.671997,100.533012 
	C435.816650,91.878670 425.691742,89.719902 414.492310,95.178169 
	C375.766998,114.051666 337.131714,133.109833 297.745148,152.319550 
M1271.162109,462.592316 
	C1271.464600,472.825806 1276.197632,480.175842 1285.473022,484.561798 
	C1296.947754,489.987793 1308.421143,495.417145 1319.903320,500.827423 
	C1348.093140,514.110291 1376.292114,527.374451 1404.476807,540.668335 
	C1409.472168,543.024475 1414.416992,545.487549 1419.925659,548.163818 
	C1410.983398,552.360901 1402.930664,556.139221 1394.878906,559.919922 
	C1378.317261,567.696533 1361.742310,575.444580 1345.198608,583.258972 
	C1324.474854,593.047668 1303.631592,602.598572 1283.116211,612.807434 
	C1267.780273,620.439026 1267.005859,641.763550 1281.426514,650.621887 
	C1289.065430,655.314270 1296.958496,654.081116 1304.538940,650.379517 
	C1320.100952,642.780518 1335.534668,634.919495 1351.073486,627.272461 
	C1386.320801,609.926514 1421.656860,592.760193 1456.832520,575.270508 
	C1468.206909,569.614990 1473.833252,559.955078 1473.700073,547.151672 
	C1473.556519,533.347168 1466.207153,524.292114 1454.322754,518.463684 
	C1430.770874,506.913208 1407.135376,495.533020 1383.580933,483.987579 
	C1357.226807,471.069794 1330.736816,458.408661 1304.676514,444.919952 
	C1291.280884,437.986389 1272.636963,444.153839 1271.162109,462.592316 
M1158.317993,494.747314 
	C1149.219727,513.625916 1140.189941,532.537903 1131.009521,551.376465 
	C1109.688477,595.128174 1088.291504,638.842834 1066.932617,682.576111 
	C1060.847412,695.035828 1054.570923,707.408447 1048.786377,720.006653 
	C1044.290161,729.799255 1048.000732,740.352478 1057.022217,745.208069 
	C1066.862793,750.504517 1077.738892,748.106140 1083.451416,738.651123 
	C1087.450684,732.031921 1090.488281,724.828430 1093.905640,717.861511 
	C1109.167114,686.748108 1124.423340,655.632080 1139.657471,624.505310 
	C1154.744629,593.678894 1169.800171,562.836975 1184.874878,532.004456 
	C1200.388794,500.273682 1215.910400,468.546753 1231.425537,436.816650 
	C1238.746338,421.845215 1246.111816,406.895416 1253.358643,391.888336 
	C1258.806519,380.606812 1255.471069,368.348297 1245.452881,363.587250 
	C1235.294922,358.759857 1222.518921,362.027100 1217.279907,373.986359 
	C1215.558228,377.916321 1213.748291,381.811157 1211.862305,385.665039 
	C1194.167969,421.824890 1176.448242,457.972321 1158.317993,494.747314 
z"/>
<path fill="#FDD102" opacity="1.000000" stroke="none" 
	d="
M1151.913086,256.000000 
	C1151.912720,277.494629 1151.949097,298.489319 1151.899048,319.483826 
	C1151.864746,333.876831 1142.492554,344.537231 1128.148926,345.756409 
	C1115.554321,346.826935 1101.654663,338.226166 1101.232544,320.907501 
	C1101.145264,317.329803 1101.219849,313.748138 1101.219849,309.089905 
	C1096.293945,314.432434 1092.347290,319.041168 1088.058716,323.306122 
	C1071.714233,339.560608 1052.065308,347.572296 1028.893555,348.044617 
	C1006.307678,348.505005 986.368591,341.410126 968.399780,328.528748 
	C956.041382,319.669342 946.930176,307.791748 939.914612,294.222168 
	C932.468628,279.820129 928.963684,264.498474 926.893250,248.527283 
	C924.382690,229.161011 926.677979,210.218506 932.355408,192.014862 
	C937.415833,175.789658 945.986328,161.060303 958.644165,148.918137 
	C978.529114,129.843231 1002.111145,120.567558 1029.427856,121.086128 
	C1056.570190,121.601387 1079.182617,132.208817 1096.684082,153.209488 
	C1097.815674,154.567276 1098.915039,155.951889 1100.029419,157.324020 
	C1100.425049,157.138321 1100.820801,156.952637 1101.216431,156.766953 
	C1101.216431,155.019211 1101.216431,153.271484 1101.216431,151.523743 
	C1101.216553,123.031036 1101.161499,94.538185 1101.238770,66.045692 
	C1101.280762,50.514069 1111.996338,39.849739 1127.311401,40.267853 
	C1139.770996,40.608013 1150.653076,50.055019 1151.768555,63.054356 
	C1151.953247,65.207115 1151.907715,67.382721 1151.907959,69.547768 
	C1151.914429,131.531845 1151.913086,193.515915 1151.913086,256.000000 
M1083.554077,284.022827 
	C1092.336060,275.964111 1097.068115,265.445129 1099.788208,254.309464 
	C1104.435425,235.285110 1102.856567,216.653992 1093.559570,198.991150 
	C1085.722534,184.102432 1074.128418,173.463959 1058.205444,168.063049 
	C1040.740723,162.139114 1023.799438,164.104492 1007.895386,173.380966 
	C988.060181,184.950439 979.693909,203.907333 977.298706,225.378510 
	C975.678162,239.905441 977.061035,254.757782 984.048279,268.242462 
	C995.435059,290.217743 1012.710510,303.491791 1038.278564,304.080933 
	C1056.215332,304.494232 1070.942505,297.498016 1083.554077,284.022827 
z"/>
<path fill="#FED101" opacity="1.000000" stroke="none" 
	d="
M791.864502,402.299652 
	C792.972046,406.598358 794.864380,410.530457 794.872253,414.466278 
	C795.041992,499.618744 794.995422,584.771667 795.009155,669.924438 
	C795.010925,680.956848 789.616760,688.793457 779.870483,692.978394 
	C770.095032,697.175903 760.345825,695.545715 752.308472,688.500244 
	C747.670959,684.435242 745.177368,678.670715 745.023499,672.265686 
	C744.913086,667.668396 745.002014,663.066284 745.002014,657.331482 
	C742.202332,660.624512 740.104614,663.058105 738.043091,665.521912 
	C722.597107,683.981812 703.320679,694.860413 678.989014,697.168518 
	C664.942566,698.500916 651.618713,696.467041 638.575623,692.018860 
	C619.296509,685.443909 603.802307,673.767395 591.665527,657.174255 
	C577.383484,637.648254 571.379211,615.726990 569.911133,592.009521 
	C569.158997,579.859314 569.738464,567.886719 572.096863,555.991333 
	C574.567688,543.528809 578.909790,531.760925 584.981812,520.552063 
	C593.089539,505.585419 604.632202,493.821045 618.888428,485.017639 
	C632.286011,476.744385 646.951660,471.174408 663.026245,471.069061 
	C674.264465,470.995392 685.491577,470.275085 696.608826,473.840851 
	C708.230591,477.568420 718.816711,482.845093 728.044922,490.710083 
	C733.836243,495.645935 739.215454,501.065308 744.998169,506.472198 
	C744.998169,505.175812 744.998169,503.471039 744.998169,501.766266 
	C744.998169,473.104248 744.997314,444.442261 744.998535,415.780243 
	C744.999084,402.886353 750.343567,394.643097 761.538147,391.009857 
	C770.704651,388.034882 783.530212,390.409668 790.312805,399.912140 
	C790.795776,400.588715 791.285156,401.260681 791.864502,402.299652 
M668.765808,652.013000 
	C672.482422,652.674805 676.200500,653.912231 679.915466,653.903015 
	C700.873047,653.850952 717.735291,645.563538 730.812561,628.934326 
	C744.227173,611.876282 746.676331,592.277649 744.597778,571.838257 
	C742.934082,555.479248 735.390076,541.658936 723.093506,530.443970 
	C708.044556,516.718628 690.515808,511.583221 670.694641,515.459656 
	C643.690918,520.740723 628.186462,538.756958 622.411377,564.337830 
	C618.881836,579.972046 618.936584,596.363220 625.174011,612.106262 
	C633.176086,632.303101 646.926086,645.863770 668.765808,652.013000 
z"/>
<path fill="#FDD102" opacity="1.000000" stroke="none" 
	d="
M727.700684,328.279419 
	C708.999573,315.446228 695.995239,298.621735 687.691956,277.945435 
	C682.935303,266.100830 680.829407,253.881973 679.849854,241.198959 
	C678.557617,224.467850 681.609680,208.487717 687.234314,193.063278 
	C691.505981,181.349030 698.345337,170.923904 706.402344,161.160004 
	C719.824951,144.893875 736.776917,134.083603 756.355957,127.450302 
	C772.512634,121.976471 789.161926,119.942070 806.478943,121.724861 
	C820.778687,123.197029 834.441895,125.964890 847.420532,132.069275 
	C869.155884,142.292252 886.165894,157.753036 897.778564,178.759995 
	C907.766113,196.827240 912.894409,216.267197 911.998779,237.076462 
	C911.335327,252.490860 908.713928,267.415161 901.948547,281.507141 
	C885.029480,316.749023 857.500732,338.352173 819.205078,345.910919 
	C810.261353,347.676300 800.962952,349.266602 791.953308,348.749512 
	C770.948181,347.543915 750.564270,343.208649 732.625122,331.154907 
	C731.153076,330.165741 729.540527,329.385742 727.700684,328.279419 
M771.937073,169.207993 
	C756.183472,174.789948 744.643311,185.591507 737.588806,200.244781 
	C730.659363,214.638199 728.421082,230.286621 730.917175,246.384827 
	C733.829163,265.165070 742.451477,280.723511 757.752991,291.923035 
	C784.404236,311.429718 825.852295,308.141785 847.052795,279.641266 
	C857.349609,265.798798 862.262085,250.405975 861.431824,233.435455 
	C861.051575,225.663818 859.293823,217.772949 856.942688,210.320435 
	C850.687988,190.494507 837.473328,176.947525 818.016541,169.454529 
	C802.939453,163.648224 787.860596,163.994186 771.937073,169.207993 
z"/>
<path fill="#FDD102" opacity="1.000000" stroke="none" 
	d="
M1376.156616,315.159576 
	C1355.076538,335.082092 1330.481079,345.664764 1301.819336,348.220825 
	C1281.402344,350.041626 1262.200439,346.165497 1243.763916,338.664734 
	C1229.847534,333.002991 1217.923950,323.814636 1207.311279,312.829865 
	C1193.880127,298.927673 1185.281860,282.388672 1180.336060,264.180725 
	C1176.107666,248.614105 1175.968628,232.447952 1178.432983,216.343506 
	C1180.966309,199.787338 1186.971680,184.467712 1196.286743,170.815628 
	C1205.229980,157.708588 1216.503906,146.576157 1230.456299,138.413422 
	C1246.362061,129.107971 1263.174561,123.517624 1281.708374,121.748512 
	C1300.935303,119.913269 1319.340332,122.042435 1337.142334,128.896591 
	C1361.611694,138.317810 1380.682129,154.177307 1394.146973,177.052460 
	C1406.674194,198.334732 1410.686157,221.278259 1408.844238,245.293625 
	C1406.768921,272.353485 1395.339722,295.484772 1376.156616,315.159576 
M1302.763428,303.489380 
	C1319.973145,301.932983 1333.858521,293.486084 1344.059692,280.361267 
	C1357.850586,262.618042 1362.160156,241.805954 1357.520508,219.751648 
	C1354.163940,203.795776 1346.713379,190.086685 1333.395630,179.676697 
	C1317.340576,167.126938 1299.394897,163.012527 1279.788696,166.430313 
	C1249.223145,171.758606 1229.148804,197.987427 1227.759888,228.381927 
	C1227.182739,241.010483 1228.256104,253.525085 1233.595215,264.866302 
	C1246.060791,291.345276 1269.968872,307.349396 1302.763428,303.489380 
z"/>
<path fill="#FDD102" opacity="1.000000" stroke="none" 
	d="
M550.506165,549.622803 
	C554.254395,562.850891 555.698547,575.916687 555.039673,589.263123 
	C554.354492,603.140442 551.451477,616.426880 545.999451,629.240662 
	C536.719971,651.050049 521.782593,667.965637 501.787476,680.344421 
	C478.640442,694.674500 453.299683,699.796997 426.264679,697.295410 
	C413.436035,696.108337 400.926117,693.412537 389.399292,687.817383 
	C380.589996,683.541443 372.181213,678.212280 364.209045,672.494385 
	C352.767303,664.287964 344.707581,653.018799 337.545807,640.959229 
	C330.308319,628.772217 326.055511,615.637634 324.305603,601.786743 
	C323.122711,592.424072 322.239197,582.749634 323.290192,573.448364 
	C324.598511,561.870300 327.068573,550.388489 331.893097,539.420715 
	C338.376007,524.682861 347.087189,511.636047 358.838135,500.856842 
	C373.475464,487.429871 390.720673,478.788544 410.106476,473.823151 
	C423.605011,470.365692 437.174530,470.362579 450.651398,471.211792 
	C475.949432,472.805878 498.388123,482.199585 517.583679,499.062561 
	C533.190491,512.772888 543.846069,529.629395 550.506165,549.622803 
M498.649109,554.045471 
	C494.673401,545.943848 489.630249,538.705627 483.059265,532.374451 
	C472.342194,522.048401 459.374115,516.617554 444.996277,515.061707 
	C428.804352,513.309387 413.632233,516.956909 400.177979,526.720337 
	C386.776154,536.445679 378.636017,549.844299 375.283875,565.561096 
	C372.713531,577.612305 372.476501,590.069885 375.624390,602.464539 
	C378.922180,615.449524 384.944672,626.839050 394.544006,635.835144 
	C409.836456,650.166504 428.173370,656.161621 449.211670,653.054626 
	C463.588531,650.931458 476.007660,644.813293 486.086945,634.467163 
	C495.096130,625.219482 500.394958,613.776794 503.241241,601.262573 
	C506.864258,585.333313 505.172424,569.820129 498.649109,554.045471 
z"/>
<path fill="#FDD102" opacity="1.000000" stroke="none" 
	d="
M1040.868164,532.140320 
	C1047.322388,546.040222 1051.302856,560.040649 1052.218872,575.179199 
	C1053.141724,590.428589 1052.393921,605.342590 1047.242554,619.639709 
	C1032.719238,659.948181 1004.488159,685.047241 962.664001,695.056824 
	C942.514771,699.879028 922.402100,698.950073 902.909851,693.643616 
	C882.545288,688.099609 864.669556,677.417786 850.023621,661.515381 
	C832.838806,642.856079 823.942505,621.016907 820.877380,596.059509 
	C818.823242,579.333374 821.377136,563.385193 826.210449,547.688538 
	C830.757996,532.919922 838.664978,519.941895 849.163818,508.445923 
	C872.181580,483.241913 900.701599,471.251587 934.704285,470.868378 
	C952.971619,470.662506 970.536865,473.377441 987.053406,480.962463 
	C1008.937988,491.012726 1026.449341,506.198456 1038.153931,527.582886 
	C1038.943481,529.025330 1039.881836,530.386230 1040.868164,532.140320 
M943.857788,653.707336 
	C944.466064,653.500977 945.060974,653.175903 945.684631,653.105530 
	C962.697327,651.184814 976.684631,643.237427 987.230469,630.171448 
	C997.319397,617.671509 1002.187012,602.846436 1002.432007,586.612427 
	C1002.750122,565.526855 996.261169,546.891968 980.874329,532.405151 
	C964.523438,517.010620 944.610352,511.591217 922.487732,515.964722 
	C892.662964,521.860840 876.716614,544.090698 872.198547,567.915527 
	C869.278748,583.312317 870.413940,598.674438 876.688110,613.600342 
	C882.089966,626.451233 890.693542,636.499817 901.989563,643.782715 
	C914.239075,651.680481 928.242432,654.911621 943.857788,653.707336 
z"/>
<path fill="#FBFCFE" opacity="1.000000" stroke="none" 
	d="
M1451.330444,135.238449 
	C1470.848999,128.015442 1490.507446,123.807373 1511.030029,122.831139 
	C1530.412476,121.909126 1549.313965,123.182877 1567.570923,130.039825 
	C1594.001587,139.966690 1609.407715,159.485352 1614.696655,186.718155 
	C1616.919678,198.164978 1617.570190,210.046402 1617.706787,221.744614 
	C1618.091919,254.725388 1617.896362,287.713745 1617.807251,320.698792 
	C1617.778076,331.498627 1611.783813,340.448151 1602.803589,343.810120 
	C1591.924438,347.882996 1580.132812,345.708191 1573.380737,337.231323 
	C1570.592896,333.731293 1569.652832,328.669861 1568.250488,324.199951 
	C1567.692627,322.421844 1568.158691,320.322510 1568.158691,317.648926 
	C1554.078369,333.140015 1537.484253,343.097443 1517.475098,346.357758 
	C1492.207031,350.474976 1467.858398,348.131073 1446.291138,332.775482 
	C1431.215332,322.041656 1422.933350,307.223846 1420.934204,288.705566 
	C1419.556030,275.939697 1420.937500,263.725464 1425.753296,251.824478 
	C1432.069092,236.216675 1443.659180,225.864441 1458.653320,219.201553 
	C1479.082397,210.123459 1500.611694,208.505768 1522.725220,209.834946 
	C1538.346191,210.773834 1553.458496,213.689133 1568.405762,218.063339 
	C1570.126343,195.061035 1560.993896,174.798660 1535.504028,168.988358 
	C1512.629150,163.774139 1490.119629,166.629700 1468.273804,174.788696 
	C1456.015381,179.366989 1441.761841,173.510818 1438.712769,161.686478 
	C1436.121948,151.638657 1438.454468,141.853943 1451.330444,135.238449 
M1539.302612,242.937683 
	C1531.195068,242.603455 1523.078125,241.856110 1514.982422,242.040329 
	C1505.018555,242.267059 1495.374512,244.403320 1486.567993,249.431641 
	C1474.009399,256.602325 1468.561523,267.605652 1470.011597,281.747131 
	C1471.341553,294.717926 1479.226685,302.714600 1491.079590,307.385681 
	C1502.067383,311.715820 1513.357544,312.009033 1524.724121,310.031189 
	C1539.240967,307.505157 1551.998047,301.651733 1561.361572,289.586151 
	C1570.613525,277.664154 1569.597656,263.964874 1569.043335,249.510071 
	C1559.394775,247.327225 1549.799438,245.156418 1539.302612,242.937683 
z"/>
<path fill="#FDD102" opacity="1.000000" stroke="none" 
	d="
M652.573242,188.982086 
	C642.722717,189.917130 635.872803,184.826981 628.945435,179.488403 
	C618.878723,171.730453 607.713257,167.078186 594.712463,165.819443 
	C568.547363,163.286163 549.778198,174.663452 536.183594,195.667099 
	C532.138733,201.916519 529.581421,209.562347 528.097900,216.922165 
	C526.386047,225.415024 525.578186,234.379562 526.245056,242.994720 
	C527.247620,255.945404 531.399475,268.138916 539.581665,278.694855 
	C546.785278,287.988220 555.234741,295.453735 566.449829,299.580322 
	C585.834229,306.712738 604.734192,306.029663 622.803284,295.793213 
	C629.776062,291.842987 635.948303,286.500671 642.816040,282.338318 
	C650.303040,277.800659 660.072876,278.979950 667.209045,285.098785 
	C673.833496,290.778870 675.093933,298.499023 673.633606,306.821198 
	C672.152771,315.260101 665.271729,319.547699 659.524902,324.384125 
	C645.561035,336.135712 629.355286,343.700562 611.369141,346.711884 
	C598.913757,348.797241 586.333008,349.576324 573.601318,347.836487 
	C555.569641,345.372375 539.149719,339.269012 523.933044,329.286346 
	C507.060699,318.217468 494.790741,303.333740 486.255493,285.320892 
	C480.416779,272.998901 477.402771,259.910370 475.813416,246.260208 
	C473.590485,227.168579 477.220306,209.207840 483.625793,191.534317 
	C489.395752,175.614288 498.780945,161.875320 511.179810,150.560562 
	C528.628906,134.637161 549.347229,125.286697 572.876526,121.959465 
	C587.030457,119.957970 601.060303,121.110191 614.874695,123.398476 
	C634.268005,126.610870 651.290039,135.623306 665.885315,148.758713 
	C672.505920,154.717087 674.938904,162.916245 672.516235,171.429749 
	C670.220093,179.498459 664.990112,185.691833 656.227905,187.884247 
	C655.133850,188.157990 654.082153,188.601074 652.573242,188.982086 
z"/>
<path fill="#FDD102" opacity="1.000000" stroke="none" 
	d="
M117.247154,549.426758 
	C122.559647,534.782043 129.037399,521.104858 139.096207,509.698029 
	C156.005127,490.523071 176.761703,477.536407 202.320374,472.974060 
	C222.662552,469.342865 242.952332,469.470520 262.750092,475.424866 
	C279.125793,480.350037 294.298370,488.150543 305.617859,501.433929 
	C311.875000,508.776672 311.790161,520.625977 306.808563,527.501953 
	C300.187775,536.640381 290.871857,539.716187 280.403839,537.133484 
	C272.475403,535.177368 267.317566,529.170593 260.891510,525.075562 
	C232.870956,507.219269 195.730545,512.263672 175.980789,540.940796 
	C161.372925,562.151794 159.576111,585.454468 167.171738,609.501587 
	C173.453033,629.387634 186.789200,643.193115 206.523987,650.145508 
	C229.285995,658.164490 250.077667,653.285339 269.185394,639.326721 
	C276.087830,634.284241 282.350525,628.229004 292.104187,628.940125 
	C300.559021,629.556519 311.033417,639.449463 311.300110,648.964233 
	C311.577454,658.860535 307.144257,665.192749 300.276215,670.950928 
	C284.609802,684.085815 267.168793,693.331787 246.667557,696.318848 
	C227.008560,699.183228 207.795120,698.259277 188.676697,692.216370 
	C169.226791,686.068665 153.076431,675.076721 139.844269,660.054565 
	C126.116798,644.470093 117.936394,625.934204 114.171432,605.417358 
	C111.123459,588.807739 111.909386,572.442810 116.005646,556.141296 
	C116.526665,554.067871 116.710304,551.909668 117.247154,549.426758 
z"/>
<path fill="#FAFCFE" opacity="1.000000" stroke="none" 
	d="
M298.103638,152.208618 
	C337.131714,133.109833 375.766998,114.051666 414.492310,95.178169 
	C425.691742,89.719902 435.816650,91.878670 442.671997,100.533012 
	C448.385132,107.745422 448.568054,119.738953 442.383514,127.316231 
	C439.861084,130.406723 436.277893,133.041428 432.644714,134.752884 
	C388.787567,155.412308 344.830170,175.858978 300.903473,196.370895 
	C300.229187,196.685745 299.612701,197.124359 298.363129,197.863968 
	C307.433838,202.198792 316.008148,206.327957 324.609467,210.400040 
	C340.557861,217.950424 356.510468,225.492065 372.482544,232.992218 
	C392.320984,242.307907 412.163605,251.615067 432.037231,260.855347 
	C447.041138,267.831421 451.531860,283.913177 441.919189,296.567108 
	C435.952850,304.421082 424.636230,306.219238 413.502441,300.845612 
	C401.310822,294.961487 389.220245,288.868225 377.071259,282.895355 
	C341.242432,265.280731 305.441467,247.608780 269.543793,230.135498 
	C262.379791,226.648376 255.486221,223.300430 250.265091,216.789673 
	C241.890625,206.346771 241.679428,181.085190 258.915649,171.911697 
	C271.710388,165.102081 284.791565,158.830673 298.103638,152.208618 
z"/>
<path fill="#FAFCFE" opacity="1.000000" stroke="none" 
	d="
M1271.183105,462.165955 
	C1272.636963,444.153839 1291.280884,437.986389 1304.676514,444.919952 
	C1330.736816,458.408661 1357.226807,471.069794 1383.580933,483.987579 
	C1407.135376,495.533020 1430.770874,506.913208 1454.322754,518.463684 
	C1466.207153,524.292114 1473.556519,533.347168 1473.700073,547.151672 
	C1473.833252,559.955078 1468.206909,569.614990 1456.832520,575.270508 
	C1421.656860,592.760193 1386.320801,609.926514 1351.073486,627.272461 
	C1335.534668,634.919495 1320.100952,642.780518 1304.538940,650.379517 
	C1296.958496,654.081116 1289.065430,655.314270 1281.426514,650.621887 
	C1267.005859,641.763550 1267.780273,620.439026 1283.116211,612.807434 
	C1303.631592,602.598572 1324.474854,593.047668 1345.198608,583.258972 
	C1361.742310,575.444580 1378.317261,567.696533 1394.878906,559.919922 
	C1402.930664,556.139221 1410.983398,552.360901 1419.925659,548.163818 
	C1414.416992,545.487549 1409.472168,543.024475 1404.476807,540.668335 
	C1376.292114,527.374451 1348.093140,514.110291 1319.903320,500.827423 
	C1308.421143,495.417145 1296.947754,489.987793 1285.473022,484.561798 
	C1276.197632,480.175842 1271.464600,472.825806 1271.183105,462.165955 
z"/>
<path fill="#FAFBFE" opacity="1.000000" stroke="none" 
	d="
M1158.526855,494.435333 
	C1176.448242,457.972321 1194.167969,421.824890 1211.862305,385.665039 
	C1213.748291,381.811157 1215.558228,377.916321 1217.279907,373.986359 
	C1222.518921,362.027100 1235.294922,358.759857 1245.452881,363.587250 
	C1255.471069,368.348297 1258.806519,380.606812 1253.358643,391.888336 
	C1246.111816,406.895416 1238.746338,421.845215 1231.425537,436.816650 
	C1215.910400,468.546753 1200.388794,500.273682 1184.874878,532.004456 
	C1169.800171,562.836975 1154.744629,593.678894 1139.657471,624.505310 
	C1124.423340,655.632080 1109.167114,686.748108 1093.905640,717.861511 
	C1090.488281,724.828430 1087.450684,732.031921 1083.451416,738.651123 
	C1077.738892,748.106140 1066.862793,750.504517 1057.022217,745.208069 
	C1048.000732,740.352478 1044.290161,729.799255 1048.786377,720.006653 
	C1054.570923,707.408447 1060.847412,695.035828 1066.932617,682.576111 
	C1088.291504,638.842834 1109.688477,595.128174 1131.009521,551.376465 
	C1140.189941,532.537903 1149.219727,513.625916 1158.526855,494.435333 
z"/>
<path fill="#000000" opacity="1.000000" stroke="none" 
	d="
M1083.301514,284.276428 
	C1070.942505,297.498016 1056.215332,304.494232 1038.278564,304.080933 
	C1012.710510,303.491791 995.435059,290.217743 984.048279,268.242462 
	C977.061035,254.757782 975.678162,239.905441 977.298706,225.378510 
	C979.693909,203.907333 988.060181,184.950439 1007.895386,173.380966 
	C1023.799438,164.104492 1040.740723,162.139114 1058.205444,168.063049 
	C1074.128418,173.463959 1085.722534,184.102432 1093.559570,198.991150 
	C1102.856567,216.653992 1104.435425,235.285110 1099.788208,254.309464 
	C1097.068115,265.445129 1092.336060,275.964111 1083.301514,284.276428 
z"/>
<path fill="#000000" opacity="1.000000" stroke="none" 
	d="
M668.363525,651.902405 
	C646.926086,645.863770 633.176086,632.303101 625.174011,612.106262 
	C618.936584,596.363220 618.881836,579.972046 622.411377,564.337830 
	C628.186462,538.756958 643.690918,520.740723 670.694641,515.459656 
	C690.515808,511.583221 708.044556,516.718628 723.093506,530.443970 
	C735.390076,541.658936 742.934082,555.479248 744.597778,571.838257 
	C746.676331,592.277649 744.227173,611.876282 730.812561,628.934326 
	C717.735291,645.563538 700.873047,653.850952 679.915466,653.903015 
	C676.200500,653.912231 672.482422,652.674805 668.363525,651.902405 
z"/>
<path fill="#000000" opacity="1.000000" stroke="none" 
	d="
M772.317993,169.083893 
	C787.860596,163.994186 802.939453,163.648224 818.016541,169.454529 
	C837.473328,176.947525 850.687988,190.494507 856.942688,210.320435 
	C859.293823,217.772949 861.051575,225.663818 861.431824,233.435455 
	C862.262085,250.405975 857.349609,265.798798 847.052795,279.641266 
	C825.852295,308.141785 784.404236,311.429718 757.752991,291.923035 
	C742.451477,280.723511 733.829163,265.165070 730.917175,246.384827 
	C728.421082,230.286621 730.659363,214.638199 737.588806,200.244781 
	C744.643311,185.591507 756.183472,174.789948 772.317993,169.083893 
z"/>
<path fill="#000000" opacity="1.000000" stroke="none" 
	d="
M1302.341553,303.651978 
	C1269.968872,307.349396 1246.060791,291.345276 1233.595215,264.866302 
	C1228.256104,253.525085 1227.182739,241.010483 1227.759888,228.381927 
	C1229.148804,197.987427 1249.223145,171.758606 1279.788696,166.430313 
	C1299.394897,163.012527 1317.340576,167.126938 1333.395630,179.676697 
	C1346.713379,190.086685 1354.163940,203.795776 1357.520508,219.751648 
	C1362.160156,241.805954 1357.850586,262.618042 1344.059692,280.361267 
	C1333.858521,293.486084 1319.973145,301.932983 1302.341553,303.651978 
z"/>
<path fill="#000000" opacity="1.000000" stroke="none" 
	d="
M498.820068,554.398621 
	C505.172424,569.820129 506.864258,585.333313 503.241241,601.262573 
	C500.394958,613.776794 495.096130,625.219482 486.086945,634.467163 
	C476.007660,644.813293 463.588531,650.931458 449.211670,653.054626 
	C428.173370,656.161621 409.836456,650.166504 394.544006,635.835144 
	C384.944672,626.839050 378.922180,615.449524 375.624390,602.464539 
	C372.476501,590.069885 372.713531,577.612305 375.283875,565.561096 
	C378.636017,549.844299 386.776154,536.445679 400.177979,526.720337 
	C413.632233,516.956909 428.804352,513.309387 444.996277,515.061707 
	C459.374115,516.617554 472.342194,522.048401 483.059265,532.374451 
	C489.630249,538.705627 494.673401,545.943848 498.820068,554.398621 
z"/>
<path fill="#000000" opacity="1.000000" stroke="none" 
	d="
M943.423523,653.836426 
	C928.242432,654.911621 914.239075,651.680481 901.989563,643.782715 
	C890.693542,636.499817 882.089966,626.451233 876.688110,613.600342 
	C870.413940,598.674438 869.278748,583.312317 872.198547,567.915527 
	C876.716614,544.090698 892.662964,521.860840 922.487732,515.964722 
	C944.610352,511.591217 964.523438,517.010620 980.874329,532.405151 
	C996.261169,546.891968 1002.750122,565.526855 1002.432007,586.612427 
	C1002.187012,602.846436 997.319397,617.671509 987.230469,630.171448 
	C976.684631,643.237427 962.697327,651.184814 945.684631,653.105530 
	C945.060974,653.175903 944.466064,653.500977 943.423523,653.836426 
z"/>
<path fill="#000000" opacity="1.000000" stroke="none" 
	d="
M1539.753418,242.961639 
	C1549.799438,245.156418 1559.394775,247.327225 1569.043335,249.510071 
	C1569.597656,263.964874 1570.613525,277.664154 1561.361572,289.586151 
	C1551.998047,301.651733 1539.240967,307.505157 1524.724121,310.031189 
	C1513.357544,312.009033 1502.067383,311.715820 1491.079590,307.385681 
	C1479.226685,302.714600 1471.341553,294.717926 1470.011597,281.747131 
	C1468.561523,267.605652 1474.009399,256.602325 1486.567993,249.431641 
	C1495.374512,244.403320 1505.018555,242.267059 1514.982422,242.040329 
	C1523.078125,241.856110 1531.195068,242.603455 1539.753418,242.961639 
z"/>
</svg>